<svg width="28" height="28" viewBox="0 0 28 28" fill="none" xmlns="http://www.w3.org/2000/svg">
<g id="Kubernetes" clip-path="url(#clip0_1439_145288)">
<path id="Vector" d="M13.9101 0.0018012C13.6598 0.0165087 13.4149 0.0813633 13.1901 0.192515L3.44008 4.84314C2.93092 5.08547 2.56087 5.54651 2.43402 6.0959L0.0474667 16.5336C-0.0662619 17.0235 0.0255958 17.537 0.309917 17.9569C0.343161 18.0077 0.378154 18.0566 0.414897 18.1039L7.15113 26.4796C7.50719 26.917 8.04171 27.1681 8.6051 27.1654H19.4093C19.9745 27.1663 20.5099 26.903 20.865 26.4717L27.5978 18.0943C27.9512 17.6568 28.0833 17.0795 27.9477 16.5318L25.5454 6.0854C25.4186 5.53601 25.0468 5.07497 24.5394 4.83264L14.8051 0.19339C14.5246 0.0550424 14.2139 -0.0108257 13.9014 0.0018012H13.9101Z" fill="#326CE5"/>
<path id="Vector_2" d="M13.9987 3.85568C13.6627 3.8786 13.4081 4.1579 13.4256 4.48388V4.64347C13.4414 4.82429 13.4694 5.00341 13.5061 5.18083C13.5598 5.52059 13.5791 5.86462 13.5639 6.20802C13.5306 6.32092 13.4641 6.42279 13.3731 6.50089L13.36 6.74028C13.0056 6.76915 12.6539 6.82178 12.3074 6.89818C10.8496 7.21737 9.52223 7.95083 8.4976 9.00773L8.2876 8.86341C8.1721 8.89737 8.04785 8.88464 7.94198 8.82946C7.65797 8.62551 7.3951 8.39522 7.1571 8.14184C7.03755 8.00325 6.90988 7.87145 6.77473 7.74709L6.64523 7.64692C6.52973 7.55694 6.38798 7.50515 6.2401 7.49836C6.15186 7.49382 6.06376 7.50961 5.983 7.54443C5.90225 7.57925 5.83114 7.63211 5.77548 7.69871C5.57773 7.96781 5.64248 8.34048 5.91898 8.53319L6.03973 8.62657C6.19516 8.7269 6.35643 8.81845 6.52273 8.90076C6.83248 9.068 7.12473 9.2641 7.39598 9.495C7.46536 9.591 7.50568 9.70392 7.51235 9.82099L7.7031 9.99077C6.67323 11.4899 6.2506 13.3058 6.51485 15.0893L6.26985 15.1572C6.20598 15.2557 6.1211 15.3398 6.0196 15.4017C5.67778 15.4903 5.32788 15.5463 4.97485 15.569C4.7875 15.5727 4.60052 15.5868 4.41485 15.6114L4.25998 15.6454H4.24248C4.135 15.6598 4.03377 15.703 3.95006 15.7699C3.86635 15.8369 3.80344 15.9251 3.76834 16.0247C3.73324 16.1244 3.72732 16.2315 3.75125 16.3342C3.77517 16.4368 3.828 16.5311 3.90385 16.6063C3.98041 16.6812 4.07693 16.734 4.18262 16.7587C4.28832 16.7835 4.39902 16.7792 4.50235 16.7464H4.51373L4.67123 16.7294C4.84885 16.6785 5.02385 16.6157 5.19448 16.5444C5.5226 16.417 5.86298 16.3194 6.21123 16.2557C6.33198 16.2625 6.44748 16.3024 6.54548 16.3703L6.80798 16.3279C7.37673 18.0401 8.57198 19.4909 10.168 20.4052L10.0612 20.6217C10.1102 20.721 10.1286 20.8314 10.1137 20.9409C9.96935 21.2652 9.7926 21.5759 9.5861 21.8679C9.47282 22.0128 9.36823 22.1638 9.27285 22.3204L9.19848 22.4732C9.14451 22.564 9.11747 22.6675 9.12033 22.7723C9.12319 22.8771 9.15585 22.9791 9.21469 23.067C9.27354 23.1549 9.35628 23.2253 9.45378 23.2705C9.55129 23.3157 9.65976 23.3338 9.76723 23.3229C9.87494 23.3112 9.97719 23.2707 10.0626 23.2059C10.148 23.1412 10.2133 23.0547 10.2511 22.9562L10.3237 22.8119C10.3902 22.6421 10.4462 22.4689 10.4917 22.294C10.6466 21.9231 10.7306 21.5249 10.9424 21.2787C11.0116 21.2156 11.0988 21.1742 11.1926 21.1599L11.3239 20.9281C13.0539 21.5733 14.9683 21.5778 16.7016 20.9409L16.818 21.1574C16.937 21.1743 17.0437 21.238 17.1155 21.3314C17.28 21.6353 17.413 21.9536 17.5145 22.2822C17.5608 22.4581 17.6174 22.6313 17.6842 22.8008L17.7569 22.9452C17.795 23.0433 17.8605 23.1293 17.9459 23.1937C18.0314 23.258 18.1335 23.2981 18.241 23.3097C18.3485 23.3212 18.4572 23.3036 18.5551 23.2589C18.6529 23.2142 18.7361 23.1441 18.7955 23.0564C18.8542 22.9681 18.8867 22.8658 18.8891 22.7607C18.8916 22.6557 18.864 22.552 18.8095 22.4613L18.7334 22.3085C18.638 22.1525 18.5334 22.002 18.4201 21.8577C18.2189 21.5759 18.0456 21.2754 17.8951 20.9604C17.8811 20.9028 17.8791 20.8431 17.8893 20.7848C17.8995 20.7264 17.9217 20.6707 17.9546 20.6208C17.9173 20.5468 17.8848 20.4705 17.8575 20.3925C19.45 19.4714 20.64 18.0155 21.2026 16.3007L21.4511 16.3432C21.5404 16.2642 21.6576 16.2226 21.7775 16.226C22.1249 16.2905 22.4652 16.3958 22.7942 16.5147C22.9649 16.5911 23.1399 16.6556 23.3175 16.7099C23.3595 16.7209 23.4207 16.7303 23.468 16.7413H23.4794C23.5826 16.7737 23.6931 16.7776 23.7986 16.7526C23.904 16.7276 24.0002 16.6748 24.0765 16.5999C24.1528 16.525 24.2061 16.431 24.2306 16.3284C24.2551 16.2259 24.2498 16.1187 24.2152 16.0189C24.1799 15.9192 24.1166 15.831 24.0326 15.7641C23.9485 15.6972 23.8469 15.6544 23.7392 15.6403L23.5695 15.6012C23.3838 15.5766 23.1968 15.5625 23.0095 15.5588C22.656 15.5367 22.306 15.4807 21.9647 15.3915C21.8597 15.3347 21.7722 15.2498 21.7127 15.1471L21.4765 15.0791C21.7284 13.2964 21.2968 11.486 20.2637 9.99162L20.4702 9.80655C20.4615 9.69025 20.5009 9.5748 20.5787 9.48566C20.8474 9.26155 21.1387 9.06376 21.445 8.89482C21.6113 8.81247 21.7725 8.72092 21.928 8.62062L22.0557 8.52045C22.1498 8.46381 22.2254 8.38249 22.2738 8.2859C22.3222 8.18931 22.3414 8.0814 22.3293 7.97465C22.3171 7.86789 22.274 7.76667 22.205 7.68268C22.136 7.5987 22.0439 7.53538 21.9394 7.50006C21.8349 7.46478 21.7223 7.4589 21.6145 7.48308C21.5067 7.50727 21.4082 7.56054 21.3304 7.63674L21.2009 7.73691C21.0657 7.86129 20.9381 7.99309 20.8185 8.13165C20.5875 8.38802 20.332 8.62147 20.0546 8.83031C19.9427 8.87452 19.8202 8.88746 19.7011 8.86766L19.4797 9.02046C18.2022 7.72163 16.4811 6.91516 14.6366 6.75387C14.6366 6.66898 14.6252 6.54164 14.6235 6.50174C14.5246 6.43553 14.4555 6.3345 14.4327 6.2199C14.4206 5.87707 14.4429 5.53391 14.4992 5.19527C14.5369 5.01699 14.5631 4.83872 14.5797 4.6579V4.48812C14.5972 4.16214 14.3435 3.88285 14.0066 3.85993L13.9987 3.85568ZM13.269 8.24116L13.094 11.2064H13.0809C13.0721 11.3898 12.961 11.546 12.7904 11.6343C12.6197 11.7225 12.4176 11.6962 12.2654 11.5884L9.75848 9.86513C10.5564 9.10478 11.5574 8.57583 12.6486 8.33794C12.8534 8.29549 13.0599 8.26323 13.2672 8.24116H13.269ZM14.7285 8.24116C16.0454 8.39991 17.2712 8.97377 18.2197 9.87447L15.7365 11.5867C15.5834 11.7056 15.3734 11.7293 15.1957 11.6478C15.0181 11.5663 14.9044 11.3932 14.9017 11.203L14.7285 8.24116ZM8.84848 10.9806L11.141 12.9654V12.9781C11.2836 13.0986 11.3457 13.2862 11.3037 13.4654C11.2617 13.6445 11.12 13.7863 10.9389 13.8346V13.8431L7.9971 14.664C7.85153 13.3782 8.15139 12.0819 8.84935 10.9797L8.84848 10.9806ZM19.1324 10.9806C19.8289 12.0799 20.1369 13.3694 20.0091 14.6538L17.063 13.8304V13.8194C16.8792 13.771 16.7392 13.6292 16.6981 13.4501C16.657 13.271 16.7182 13.0851 16.8609 12.9628L19.1359 10.9874L19.1324 10.9806ZM13.5289 13.1199H14.4669L15.04 13.8262L14.8317 14.709L13.9891 15.1021L13.1447 14.709L12.9461 13.8262L13.5289 13.1199ZM16.5336 15.5291C16.573 15.5248 16.6211 15.5248 16.6517 15.5291L19.6854 16.0257C19.2479 17.2481 18.3842 18.2923 17.2572 18.9909L16.0847 16.2371C16.0525 16.1632 16.039 16.0829 16.0454 16.0029C16.0519 15.9229 16.078 15.8456 16.1217 15.7774C16.1653 15.7093 16.2252 15.6523 16.2963 15.6113C16.3674 15.5703 16.4475 15.5465 16.5301 15.5418L16.5336 15.5291ZM11.4385 15.5418C11.61 15.5443 11.7684 15.6301 11.862 15.7693C11.9556 15.9085 11.9705 16.0834 11.9031 16.2362V16.2472L10.7376 18.979C9.62198 18.2855 8.77498 17.2541 8.32435 16.0444L11.3317 15.5494C11.365 15.546 11.3991 15.546 11.4332 15.5494L11.4385 15.5418ZM13.9795 16.7303C14.0751 16.7274 14.1696 16.7503 14.2526 16.7964C14.3356 16.8426 14.4037 16.9102 14.4494 16.9917H14.4607L15.943 19.5869L15.3506 19.7566C14.2604 19.9986 13.122 19.9417 12.0624 19.592L13.5499 16.9968C13.64 16.844 13.8062 16.7507 13.9874 16.7464L13.9795 16.7303Z" fill="white" stroke="white" stroke-width="0.128309"/>
</g>
<defs>
<clipPath id="clip0_1439_145288">
<rect width="28" height="27.1652" fill="white"/>
</clipPath>
</defs>
</svg>
